<?xml version="1.0" encoding="utf-8"?>
<!-- Generator: Adobe Illustrator 23.0.4, SVG Export Plug-In . SVG Version: 6.00 Build 0)  -->
<svg version="1.1" xmlns="http://www.w3.org/2000/svg" xmlns:xlink="http://www.w3.org/1999/xlink" x="0px" y="0px"
	 viewBox="0 38 288 127" style="enable-background:new 0 0 288 216;" xml:space="preserve">
<style type="text/css">
	.st0{opacity:0.6;}
	.st1{opacity:0.5;}
	.st2{fill:none;}
	.st3{fill:none;stroke:#6D6E71;stroke-width:0.25;stroke-miterlimit:10;}
	.st4{opacity:0.4;fill:none;stroke:#6D6E71;stroke-width:0.5;stroke-miterlimit:10;}
	.st5{fill:#414042;}
	.st6{fill:#414042;stroke:#414042;stroke-width:2.4;stroke-miterlimit:10;}
	.st7{fill:#61150D;}
</style>
<g id="Background">
	<g class="st0">
		<g class="st1">
			<path class="st2" d="M106.6,126.5c1.6-0.7,3.1-1.5,4.7-2.2c0.4-1.4,0.8-2.8,1.2-4.1C110.5,122.2,108.6,124.3,106.6,126.5z"/>
			<path class="st3" d="M101,144.7c36.2-12.1,57.9-27.9,68.2-36.9c0.5-4.3,0.8-8.1,1.3-11.3c-12.4,10.2-34.5,26.2-63.5,38.6
				C105.3,138.4,103.4,141.6,101,144.7z"/>
			<path class="st3" d="M91.1,154c45.7-9.1,66.6-23,75.7-32c1.2-4.9,1.8-9.8,2.3-14.2c-10.3,9-32,24.8-68.2,36.9
				C98.3,148.2,95,151.4,91.1,154z"/>
			<path class="st3" d="M107,135.1c29-12.4,51.1-28.4,63.5-38.6c0.2-1.3,0.4-2.4,0.7-3.4c0.6-2.2,1.2-5.1,2.1-8.3
				c-12.5,9.6-36.9,27.3-61.9,39.5C110.2,127.8,108.8,131.5,107,135.1z"/>
			<path class="st3" d="M66.4,161.6l42.2,0c0,0,35.6,2,51.8-23.6c-23.9,17.1-58.5,21-81,21.5C75.5,160.7,71.2,161.5,66.4,161.6z"/>
			<path class="st3" d="M79.3,159.6c22.5-0.5,57.1-4.4,81-21.5c2.2-3.5,4-7.4,5.4-11.9c0.4-1.4,0.8-2.7,1.1-4.1
				c-9.2,9-30.1,23-75.7,32C87.7,156.3,83.8,158.3,79.3,159.6z"/>
			<path class="st3" d="M66.4,161.6l-4.2,0C63.6,161.7,65,161.7,66.4,161.6z"/>
			<path class="st3" d="M117.1,93.3c-0.9,4.2-1.6,8.2-1.9,11.3c-0.2,1.6-0.4,3.8-0.8,6.4c18.6-33.4,52-46.2,70.6-50.9
				c3.5-4.2,7.9-8.2,13.6-11.3C176.3,52.3,138.4,62.7,117.1,93.3z"/>
			<path class="st3" d="M227.6,41.6h8C232.9,41.5,230.2,41.5,227.6,41.6z"/>
			<path class="st3" d="M180.8,41.6h-8.1c0,0-40.7,0-49,24C137.2,52.4,159.8,45.4,180.8,41.6z"/>
			<path class="st3" d="M180.8,41.6c-21,3.8-43.6,10.9-57.1,24c-0.1,0.3-0.2,0.6-0.3,0.9c0,0-1.3,4.9-2.9,11.5
				c27.5-30.3,72.6-35,95.8-35.2c3.5-0.6,7.2-1,11.3-1.2H180.8z"/>
			<path class="st3" d="M120.6,78c-1.1,4.7-2.4,10.2-3.5,15.3c21.3-30.6,59.2-41,81.5-44.5c4.9-2.7,10.7-4.8,17.7-6
				C193.2,43,148,47.7,120.6,78z"/>
			<path class="st3" d="M112.5,120.2c-0.3,1.3-0.7,2.7-1.2,4.1c25-12.3,49.5-30,61.9-39.5c0.9-3.2,2-6.8,3.5-10.6
				C164.6,77.4,143.1,87.8,112.5,120.2z"/>
			<path class="st3" d="M114.4,111c-0.4,2.7-1,5.8-1.9,9.1c30.6-32.3,52.2-42.7,64.2-46c1.9-4.7,4.5-9.6,8.3-14.1
				C166.4,64.8,133,77.6,114.4,111z"/>
		</g>
		<path class="st4" d="M235.7,41.6h-62.9c0,0-41.6,0-49.3,24.9c0,0-7,26.2-8.3,38.1c-1.3,11.9-7.3,58.6-53.1,57l46.4,0
			c0,0,45.9,2.6,57.2-35.6c3.8-12.9,3.6-26.4,5.4-33.1C174.9,79,180.2,39.5,235.7,41.6z"/>
	</g>
</g>
<g id="Layer_1">
	<g>
		<path class="st5" d="M40.4,125.6c-0.2,0.6-0.5,1.1-0.9,1.4c-0.4,0.3-0.8,0.5-1.3,0.5c-0.4,0-0.7-0.1-1-0.3
			c-0.3-0.2-0.6-0.4-0.8-0.8c-0.2-0.3-0.4-0.7-0.5-1.2c-0.1-0.5-0.2-1-0.2-1.5c0-0.5,0.1-1,0.2-1.5c0.1-0.5,0.3-0.9,0.5-1.2
			c0.2-0.3,0.5-0.6,0.8-0.8c0.3-0.2,0.7-0.3,1-0.3c0.5,0,0.9,0.1,1.3,0.4c0.4,0.3,0.7,0.7,0.9,1.2l-0.5,0.5c-0.2-0.4-0.4-0.8-0.7-1
			c-0.3-0.2-0.6-0.4-1-0.4c-0.3,0-0.5,0.1-0.8,0.2s-0.4,0.3-0.6,0.6c-0.2,0.3-0.3,0.6-0.4,0.9c-0.1,0.4-0.1,0.7-0.1,1.2
			c0,0.4,0,0.8,0.1,1.2c0.1,0.4,0.2,0.7,0.4,0.9c0.2,0.3,0.4,0.5,0.6,0.6c0.2,0.1,0.5,0.2,0.8,0.2c0.4,0,0.7-0.1,1-0.4
			c0.3-0.3,0.6-0.7,0.8-1.2L40.4,125.6z"/>
		<path class="st5" d="M45.6,127.5c-0.4,0-0.7-0.1-1-0.3c-0.3-0.2-0.6-0.4-0.8-0.8c-0.2-0.3-0.4-0.7-0.5-1.2c-0.1-0.5-0.2-1-0.2-1.5
			c0-0.5,0.1-1,0.2-1.5c0.1-0.5,0.3-0.9,0.5-1.2c0.2-0.3,0.5-0.6,0.8-0.8c0.3-0.2,0.7-0.3,1-0.3c0.4,0,0.7,0.1,1,0.3
			c0.3,0.2,0.6,0.4,0.8,0.8c0.2,0.3,0.4,0.7,0.5,1.2c0.1,0.5,0.2,1,0.2,1.5c0,0.5-0.1,1-0.2,1.5c-0.1,0.5-0.3,0.8-0.5,1.2
			c-0.2,0.3-0.5,0.6-0.8,0.8C46.3,127.4,45.9,127.5,45.6,127.5z M45.6,126.7c0.3,0,0.5-0.1,0.8-0.2c0.2-0.1,0.4-0.3,0.6-0.6
			c0.2-0.3,0.3-0.6,0.4-0.9c0.1-0.4,0.1-0.7,0.1-1.2c0-0.4,0-0.8-0.1-1.2c-0.1-0.4-0.2-0.7-0.4-0.9c-0.2-0.3-0.4-0.5-0.6-0.6
			c-0.2-0.1-0.5-0.2-0.8-0.2c-0.3,0-0.5,0.1-0.8,0.2c-0.2,0.1-0.4,0.3-0.6,0.6c-0.2,0.3-0.3,0.6-0.4,0.9c-0.1,0.4-0.1,0.7-0.1,1.2
			c0,0.4,0,0.8,0.1,1.2c0.1,0.4,0.2,0.7,0.4,0.9c0.2,0.3,0.4,0.5,0.6,0.6C45,126.6,45.3,126.7,45.6,126.7z"/>
		<path class="st5" d="M51.1,120.2h0.3l3.2,5.3v-5.3h0.6v7.1h-0.3l-3.2-5.3v5.3h-0.6V120.2z"/>
		<path class="st5" d="M58.5,125.5c0.4,0.4,0.7,0.7,1.1,0.9c0.4,0.2,0.8,0.3,1.1,0.3c0.2,0,0.5,0,0.6-0.1c0.2-0.1,0.4-0.2,0.5-0.3
			c0.1-0.1,0.2-0.3,0.3-0.5c0.1-0.2,0.1-0.4,0.1-0.6c0-0.3-0.1-0.6-0.3-0.8c-0.2-0.2-0.5-0.4-0.9-0.4c-0.2,0-0.4,0-0.6-0.1
			c-0.2,0-0.4,0-0.5-0.1c-0.2,0-0.3-0.1-0.5-0.1c-0.2,0-0.3-0.1-0.4-0.2c-0.5-0.3-0.7-0.8-0.7-1.5c0-0.3,0-0.5,0.1-0.8
			c0.1-0.2,0.2-0.4,0.4-0.6c0.2-0.2,0.4-0.3,0.6-0.4c0.2-0.1,0.5-0.2,0.8-0.2c0.4,0,0.8,0.1,1.2,0.3c0.4,0.2,0.8,0.5,1.1,0.9
			l-0.4,0.7c-0.6-0.7-1.3-1.1-2-1.1c-0.4,0-0.7,0.1-0.9,0.3c-0.2,0.2-0.4,0.5-0.4,0.8c0,0.2,0.1,0.5,0.2,0.6
			c0.1,0.1,0.2,0.2,0.4,0.3c0.1,0.1,0.3,0.1,0.5,0.1c0.2,0,0.4,0,0.6,0.1c0.2,0,0.4,0,0.6,0.1c0.5,0.1,0.9,0.3,1.2,0.7
			c0.3,0.4,0.4,0.9,0.4,1.4c0,0.3,0,0.6-0.1,0.9c-0.1,0.3-0.2,0.5-0.4,0.7c-0.2,0.2-0.4,0.4-0.7,0.5c-0.3,0.1-0.6,0.2-0.9,0.2
			c-0.5,0-1-0.1-1.4-0.3c-0.4-0.2-0.8-0.5-1.2-1L58.5,125.5z"/>
		<path class="st5" d="M66.4,124.8c0,0.4,0,0.7,0.1,0.9c0,0.2,0.1,0.4,0.2,0.6c0.1,0.1,0.3,0.2,0.4,0.3c0.2,0.1,0.4,0.1,0.7,0.1
			c0.3,0,0.5,0,0.7-0.1c0.2-0.1,0.3-0.2,0.4-0.3c0.1-0.1,0.2-0.3,0.2-0.6c0-0.2,0.1-0.5,0.1-0.9v-4.6h0.6v4.8c0,0.9-0.2,1.5-0.5,1.9
			c-0.3,0.4-0.8,0.6-1.6,0.6c-0.7,0-1.3-0.2-1.6-0.6c-0.3-0.4-0.5-1-0.5-1.9v-4.8h0.6V124.8z"/>
		<path class="st5" d="M73.2,120.2h0.6v6.3H77v0.8h-3.9V120.2z"/>
		<path class="st5" d="M79.8,121h-2.1v-0.8h4.8v0.8h-2.1v6.3h-0.6V121z"/>
		<path class="st5" d="M84.7,120.2h0.6v7.2h-0.6V120.2z"/>
		<path class="st5" d="M88.6,120.2h0.3l3.2,5.3v-5.3h0.6v7.1h-0.3l-3.2-5.3v5.3h-0.6V120.2z"/>
		<path class="st5" d="M100,124.4h-1.4v-0.8h2v2.1c-0.2,0.6-0.6,1.1-0.9,1.4c-0.4,0.3-0.8,0.5-1.3,0.5c-0.4,0-0.7-0.1-1-0.3
			c-0.3-0.2-0.6-0.4-0.8-0.8c-0.2-0.3-0.4-0.7-0.5-1.2c-0.1-0.5-0.2-1-0.2-1.5c0-0.5,0.1-1,0.2-1.5c0.1-0.5,0.3-0.9,0.5-1.2
			c0.2-0.3,0.5-0.6,0.8-0.8c0.3-0.2,0.7-0.3,1-0.3c0.5,0,0.9,0.1,1.3,0.4c0.4,0.3,0.7,0.7,0.9,1.2l-0.5,0.5c-0.2-0.4-0.4-0.8-0.7-1
			c-0.3-0.2-0.6-0.4-1-0.4c-0.3,0-0.5,0.1-0.8,0.2c-0.2,0.1-0.4,0.3-0.6,0.6c-0.2,0.3-0.3,0.6-0.4,0.9c-0.1,0.4-0.1,0.7-0.1,1.2
			c0,0.4,0,0.8,0.1,1.2c0.1,0.4,0.2,0.7,0.4,0.9c0.2,0.3,0.4,0.5,0.6,0.6c0.2,0.1,0.5,0.2,0.8,0.2c0.7,0,1.2-0.4,1.6-1.3V124.4z"/>
		<path class="st5" d="M113.1,125.5c0.4,0.4,0.7,0.7,1.1,0.9c0.4,0.2,0.8,0.3,1.1,0.3c0.2,0,0.5,0,0.6-0.1c0.2-0.1,0.4-0.2,0.5-0.3
			c0.1-0.1,0.2-0.3,0.3-0.5c0.1-0.2,0.1-0.4,0.1-0.6c0-0.3-0.1-0.6-0.3-0.8c-0.2-0.2-0.5-0.4-0.9-0.4c-0.2,0-0.4,0-0.6-0.1
			c-0.2,0-0.4,0-0.5-0.1c-0.2,0-0.3-0.1-0.5-0.1c-0.2,0-0.3-0.1-0.4-0.2c-0.5-0.3-0.7-0.8-0.7-1.5c0-0.3,0-0.5,0.1-0.8
			c0.1-0.2,0.2-0.4,0.4-0.6c0.2-0.2,0.4-0.3,0.6-0.4c0.2-0.1,0.5-0.2,0.8-0.2c0.4,0,0.8,0.1,1.2,0.3c0.4,0.2,0.8,0.5,1.1,0.9
			l-0.4,0.7c-0.6-0.7-1.3-1.1-2-1.1c-0.4,0-0.7,0.1-0.9,0.3c-0.2,0.2-0.4,0.5-0.4,0.8c0,0.2,0.1,0.5,0.2,0.6
			c0.1,0.1,0.2,0.2,0.4,0.3c0.1,0.1,0.3,0.1,0.5,0.1c0.2,0,0.4,0,0.6,0.1c0.2,0,0.4,0,0.6,0.1c0.5,0.1,0.9,0.3,1.2,0.7
			c0.3,0.4,0.4,0.9,0.4,1.4c0,0.3,0,0.6-0.1,0.9c-0.1,0.3-0.2,0.5-0.4,0.7c-0.2,0.2-0.4,0.4-0.7,0.5c-0.3,0.1-0.6,0.2-0.9,0.2
			c-0.5,0-1-0.1-1.4-0.3c-0.4-0.2-0.8-0.5-1.2-1L113.1,125.5z"/>
		<path class="st5" d="M121.5,121h-2.1v-0.8h4.8v0.8h-2.1v6.3h-0.6V121z"/>
		<path class="st5" d="M126.3,120.2h2.9c0.5,0,0.9,0.2,1.2,0.5c0.3,0.3,0.4,0.8,0.4,1.5c0,0.3,0,0.5-0.1,0.7
			c-0.1,0.2-0.1,0.4-0.2,0.6c-0.1,0.2-0.2,0.3-0.4,0.4c-0.1,0.1-0.3,0.2-0.5,0.3l1.2,3.1h-0.7l-1.2-3.1h-1.9v3.1h-0.6V120.2z
			 M129.1,123.4c0.6,0,1-0.4,1-1.2c0-0.4-0.1-0.7-0.2-0.9c-0.2-0.2-0.4-0.3-0.7-0.3h-2.2v2.3H129.1z"/>
		<path class="st5" d="M134.2,124.8c0,0.4,0,0.7,0.1,0.9c0,0.2,0.1,0.4,0.2,0.6c0.1,0.1,0.3,0.2,0.4,0.3c0.2,0.1,0.4,0.1,0.7,0.1
			c0.3,0,0.5,0,0.7-0.1c0.2-0.1,0.3-0.2,0.4-0.3c0.1-0.1,0.2-0.3,0.2-0.6c0-0.2,0.1-0.5,0.1-0.9v-4.6h0.6v4.8c0,0.9-0.2,1.5-0.5,1.9
			c-0.3,0.4-0.8,0.6-1.6,0.6c-0.7,0-1.3-0.2-1.6-0.6c-0.3-0.4-0.5-1-0.5-1.9v-4.8h0.6V124.8z"/>
		<path class="st5" d="M145.3,125.6c-0.2,0.6-0.5,1.1-0.9,1.4c-0.4,0.3-0.8,0.5-1.3,0.5c-0.4,0-0.7-0.1-1-0.3
			c-0.3-0.2-0.6-0.4-0.8-0.8c-0.2-0.3-0.4-0.7-0.5-1.2c-0.1-0.5-0.2-1-0.2-1.5c0-0.5,0.1-1,0.2-1.5c0.1-0.5,0.3-0.9,0.5-1.2
			c0.2-0.3,0.5-0.6,0.8-0.8c0.3-0.2,0.7-0.3,1-0.3c0.5,0,0.9,0.1,1.3,0.4c0.4,0.3,0.7,0.7,0.9,1.2l-0.5,0.5c-0.2-0.4-0.4-0.8-0.7-1
			c-0.3-0.2-0.6-0.4-1-0.4c-0.3,0-0.5,0.1-0.8,0.2s-0.4,0.3-0.6,0.6c-0.2,0.3-0.3,0.6-0.4,0.9c-0.1,0.4-0.1,0.7-0.1,1.2
			c0,0.4,0,0.8,0.1,1.2c0.1,0.4,0.2,0.7,0.4,0.9c0.2,0.3,0.4,0.5,0.6,0.6c0.2,0.1,0.5,0.2,0.8,0.2c0.4,0,0.7-0.1,1-0.4
			c0.3-0.3,0.6-0.7,0.8-1.2L145.3,125.6z"/>
		<path class="st5" d="M149.2,121h-2.1v-0.8h4.8v0.8h-2.1v6.3h-0.6V121z"/>
		<path class="st5" d="M154.5,124.8c0,0.4,0,0.7,0.1,0.9c0,0.2,0.1,0.4,0.2,0.6c0.1,0.1,0.3,0.2,0.4,0.3c0.2,0.1,0.4,0.1,0.7,0.1
			c0.3,0,0.5,0,0.7-0.1c0.2-0.1,0.3-0.2,0.4-0.3c0.1-0.1,0.2-0.3,0.2-0.6c0-0.2,0.1-0.5,0.1-0.9v-4.6h0.6v4.8c0,0.9-0.2,1.5-0.5,1.9
			c-0.3,0.4-0.8,0.6-1.6,0.6c-0.7,0-1.3-0.2-1.6-0.6c-0.3-0.4-0.5-1-0.5-1.9v-4.8h0.6V124.8z"/>
		<path class="st5" d="M161.2,120.2h2.9c0.5,0,0.9,0.2,1.2,0.5c0.3,0.3,0.4,0.8,0.4,1.5c0,0.3,0,0.5-0.1,0.7
			c-0.1,0.2-0.1,0.4-0.2,0.6c-0.1,0.2-0.2,0.3-0.4,0.4c-0.1,0.1-0.3,0.2-0.5,0.3l1.2,3.1H165l-1.2-3.1h-1.9v3.1h-0.6V120.2z
			 M164,123.4c0.6,0,1-0.4,1-1.2c0-0.4-0.1-0.7-0.2-0.9c-0.2-0.2-0.4-0.3-0.7-0.3h-2.2v2.3H164z"/>
		<path class="st5" d="M169.9,120.2h0.5l2.5,7.1h-0.7l-0.7-1.9h-2.8l-0.7,1.9h-0.7L169.9,120.2z M171.3,124.6l-1.1-3.2l-1.1,3.2
			H171.3z"/>
		<path class="st5" d="M175.5,120.2h0.6v6.3h3.3v0.8h-3.9V120.2z"/>
		<path class="st5" d="M191.5,120.2h3.9v0.8h-3.3v2.1h2v0.8h-2v2.6h3.5v0.8h-4.1V120.2z"/>
		<path class="st5" d="M198.4,120.2h0.3l3.2,5.3v-5.3h0.6v7.1h-0.3L199,122v5.3h-0.6V120.2z"/>
		<path class="st5" d="M209.7,124.4h-1.4v-0.8h2v2.1c-0.2,0.6-0.6,1.1-0.9,1.4c-0.4,0.3-0.8,0.5-1.3,0.5c-0.4,0-0.7-0.1-1-0.3
			c-0.3-0.2-0.6-0.4-0.8-0.8c-0.2-0.3-0.4-0.7-0.5-1.2c-0.1-0.5-0.2-1-0.2-1.5c0-0.5,0.1-1,0.2-1.5c0.1-0.5,0.3-0.9,0.5-1.2
			c0.2-0.3,0.5-0.6,0.8-0.8c0.3-0.2,0.7-0.3,1-0.3c0.5,0,0.9,0.1,1.3,0.4c0.4,0.3,0.7,0.7,0.9,1.2l-0.5,0.5c-0.2-0.4-0.4-0.8-0.7-1
			c-0.3-0.2-0.6-0.4-1-0.4c-0.3,0-0.5,0.1-0.8,0.2c-0.2,0.1-0.4,0.3-0.6,0.6c-0.2,0.3-0.3,0.6-0.4,0.9c-0.1,0.4-0.1,0.7-0.1,1.2
			c0,0.4,0,0.8,0.1,1.2c0.1,0.4,0.2,0.7,0.4,0.9c0.2,0.3,0.4,0.5,0.6,0.6c0.2,0.1,0.5,0.2,0.8,0.2c0.7,0,1.2-0.4,1.6-1.3V124.4z"/>
		<path class="st5" d="M213.5,120.2h0.6v7.2h-0.6V120.2z"/>
		<path class="st5" d="M217.5,120.2h0.3l3.2,5.3v-5.3h0.6v7.1h-0.3l-3.2-5.3v5.3h-0.6V120.2z"/>
		<path class="st5" d="M225,120.2h3.9v0.8h-3.3v2.1h2v0.8h-2v2.6h3.5v0.8H225V120.2z"/>
		<path class="st5" d="M231.9,120.2h3.9v0.8h-3.3v2.1h2v0.8h-2v2.6h3.5v0.8h-4.1V120.2z"/>
		<path class="st5" d="M238.7,120.2h2.9c0.5,0,0.9,0.2,1.2,0.5c0.3,0.3,0.4,0.8,0.4,1.5c0,0.3,0,0.5-0.1,0.7
			c-0.1,0.2-0.1,0.4-0.2,0.6c-0.1,0.2-0.2,0.3-0.4,0.4c-0.1,0.1-0.3,0.2-0.5,0.3l1.2,3.1h-0.7l-1.2-3.1h-1.9v3.1h-0.6V120.2z
			 M241.5,123.4c0.6,0,1-0.4,1-1.2c0-0.4-0.1-0.7-0.2-0.9c-0.2-0.2-0.4-0.3-0.7-0.3h-2.2v2.3H241.5z"/>
		<path class="st5" d="M246,125.5c0.4,0.4,0.7,0.7,1.1,0.9c0.4,0.2,0.8,0.3,1.1,0.3c0.2,0,0.5,0,0.6-0.1c0.2-0.1,0.4-0.2,0.5-0.3
			c0.1-0.1,0.2-0.3,0.3-0.5c0.1-0.2,0.1-0.4,0.1-0.6c0-0.3-0.1-0.6-0.3-0.8c-0.2-0.2-0.5-0.4-0.9-0.4c-0.2,0-0.4,0-0.6-0.1
			c-0.2,0-0.4,0-0.5-0.1c-0.2,0-0.3-0.1-0.5-0.1c-0.2,0-0.3-0.1-0.4-0.2c-0.5-0.3-0.7-0.8-0.7-1.5c0-0.3,0-0.5,0.1-0.8
			c0.1-0.2,0.2-0.4,0.4-0.6c0.2-0.2,0.4-0.3,0.6-0.4c0.2-0.1,0.5-0.2,0.8-0.2c0.4,0,0.8,0.1,1.2,0.3c0.4,0.2,0.8,0.5,1.1,0.9
			l-0.4,0.7c-0.6-0.7-1.3-1.1-2-1.1c-0.4,0-0.7,0.1-0.9,0.3c-0.2,0.2-0.4,0.5-0.4,0.8c0,0.2,0.1,0.5,0.2,0.6
			c0.1,0.1,0.2,0.2,0.4,0.3c0.1,0.1,0.3,0.1,0.5,0.1c0.2,0,0.4,0,0.6,0.1c0.2,0,0.4,0,0.6,0.1c0.5,0.1,0.9,0.3,1.2,0.7
			c0.3,0.4,0.4,0.9,0.4,1.4c0,0.3,0,0.6-0.1,0.9c-0.1,0.3-0.2,0.5-0.4,0.7c-0.2,0.2-0.4,0.4-0.7,0.5c-0.3,0.1-0.6,0.2-0.9,0.2
			c-0.5,0-1-0.1-1.4-0.3c-0.4-0.2-0.8-0.5-1.2-1L246,125.5z"/>
	</g>
	<line class="st6" x1="13.4" y1="109.3" x2="281.4" y2="109.3"/>
</g>
<g id="Layer_2">
	<path class="st7" d="M17,99.5c1.8,0,7.2,0,8.7,0c0.9,0,1.8-0.1,2.5-0.3c0.7-0.2,1.4-0.5,1.9-0.9c0.5-0.4,0.9-0.8,1.2-1.3
		c0.3-0.5,0.4-1,0.4-1.6c0-0.9-0.4-1.7-1.1-2.3c-0.8-0.6-1.9-1-3.4-1.2c-0.8-0.1-1.6-0.1-2.4-0.2c-0.7,0-1.4-0.1-2.1-0.2
		c-0.7-0.1-1.3-0.2-1.9-0.3c-0.6-0.1-1.1-0.3-1.6-0.6c-1.8-0.9-2.8-2.2-2.8-4c0-0.7,0.2-1.4,0.5-2.1c0.3-0.6,0.9-1.2,1.5-1.7
		c0.7-0.5,1.5-0.9,2.4-1.2c0.9-0.3,10.6-0.1,12.1-0.1l0,2.2c-2.3,0-6.3,0-9.1,0c-1.5,0-2.6,0-3.5,0.6c-0.9,0.6-1.4,1.3-1.4,2.1
		c0,0.7,0.3,1.2,0.9,1.7c0.4,0.3,0.9,0.5,1.4,0.7c0.6,0.1,1.2,0.3,1.8,0.3c0.7,0.1,1.4,0.1,2.2,0.2c0.8,0,1.6,0.1,2.5,0.2
		c2,0.2,3.6,0.9,4.7,1.9c1.1,1.1,1.7,2.3,1.7,3.8c0,0.8-0.2,1.6-0.6,2.4c-0.4,0.8-0.9,1.4-1.7,2c-0.7,0.6-1.6,1-2.7,1.3
		c-1.1,0.3-2.3,0.5-3.7,0.5c-1.9,0-6.8-0.1-8.7,0L17,99.5z"/>
	<path class="st7" d="M44.3,83.9h-8.2v-2.2h18.8v2.2h-8.2v17.2h-2.4V83.9z"/>
	<path class="st7" d="M81.4,94.3c0,1,0.1,1.8,0.3,2.5c0.2,0.7,0.5,1.2,0.9,1.5c0.4,0.4,1,0.6,1.7,0.8c0.7,0.2,1.6,0.2,2.7,0.2
		c1.1,0,2-0.1,2.7-0.2c0.7-0.2,1.3-0.4,1.7-0.8c0.4-0.4,0.7-0.9,0.9-1.5c0.2-0.7,0.3-1.5,0.3-2.5V81.7h2.4v13.2
		c0,2.4-0.6,4.1-1.9,5.1c-1.2,1-3.3,1.6-6.1,1.6c-2.9,0-4.9-0.5-6.1-1.6c-1.2-1-1.9-2.8-1.9-5.1V81.7h2.4V94.3z"/>
	<path class="st7" d="M117.7,96.3c-0.9,1.7-2.1,3-3.7,3.9c-1.5,0.9-3.3,1.4-5.3,1.4c-1.4,0-2.8-0.3-4-0.8c-1.2-0.5-2.3-1.2-3.2-2.1
		c-0.9-0.9-1.6-2-2.1-3.2c-0.5-1.2-0.8-2.6-0.8-4.1c0-1.5,0.3-2.8,0.8-4.1c0.5-1.2,1.2-2.3,2.1-3.2c0.9-0.9,2-1.6,3.2-2.1
		c1.2-0.5,2.6-0.8,4-0.8c1.8,0,3.4,0.4,4.9,1.2c1.5,0.8,2.7,1.9,3.6,3.3l-2,1.4c-0.6-1.2-1.5-2.1-2.6-2.7c-1.1-0.6-2.4-1-3.8-1
		c-1.1,0-2.1,0.2-3,0.6c-0.9,0.4-1.7,0.9-2.4,1.6c-0.7,0.7-1.2,1.5-1.6,2.5c-0.4,1-0.6,2-0.6,3.2c0,1.2,0.2,2.2,0.6,3.2
		c0.4,1,0.9,1.8,1.6,2.5c0.7,0.7,1.5,1.3,2.4,1.6c0.9,0.4,1.9,0.6,3,0.6c1.5,0,2.9-0.4,4-1.1c1.2-0.7,2.2-1.8,2.9-3.3L117.7,96.3z"
		/>
	<path class="st7" d="M126.4,83.9h-8.2v-2.2H137v2.2h-8.2v17.2h-2.4V83.9z"/>
	<path class="st7" d="M143,94.3c0,1,0.1,1.8,0.3,2.5c0.2,0.7,0.5,1.2,0.9,1.5c0.4,0.4,1,0.6,1.7,0.8c0.7,0.2,1.6,0.2,2.7,0.2
		c1.1,0,2-0.1,2.7-0.2c0.7-0.2,1.3-0.4,1.7-0.8c0.4-0.4,0.7-0.9,0.9-1.5c0.2-0.7,0.3-1.5,0.3-2.5V81.7h2.4v13.2
		c0,2.4-0.6,4.1-1.9,5.1c-1.2,1-3.3,1.6-6.1,1.6c-2.9,0-4.9-0.5-6.1-1.6c-1.2-1-1.9-2.8-1.9-5.1V81.7h2.4V94.3z"/>
	<path class="st7" d="M190.9,101.6c-1.4,0-2.8-0.3-4-0.8c-1.2-0.5-2.3-1.2-3.2-2.1c-0.9-0.9-1.6-2-2.1-3.2c-0.5-1.2-0.8-2.6-0.8-4.1
		c0-1.5,0.3-2.8,0.8-4.1c0.5-1.2,1.2-2.3,2.1-3.2c0.9-0.9,2-1.6,3.2-2.1s2.6-0.8,4-0.8s2.8,0.3,4,0.8c1.2,0.5,2.3,1.2,3.2,2.1
		c0.9,0.9,1.6,2,2.1,3.2c0.5,1.2,0.8,2.6,0.8,4.1c0,1.5-0.3,2.9-0.8,4.1c-0.5,1.2-1.2,2.3-2.1,3.2c-0.9,0.9-2,1.6-3.2,2.1
		C193.7,101.3,192.3,101.6,190.9,101.6z M190.9,99.3c1.1,0,2.1-0.2,3-0.6c0.9-0.4,1.7-0.9,2.4-1.6c0.7-0.7,1.2-1.5,1.6-2.5
		c0.4-1,0.6-2,0.6-3.2c0-1.2-0.2-2.2-0.6-3.2c-0.4-1-0.9-1.8-1.6-2.5c-0.7-0.7-1.5-1.2-2.4-1.6c-0.9-0.4-1.9-0.6-3-0.6
		c-1.1,0-2.1,0.2-3,0.6c-0.9,0.4-1.7,0.9-2.4,1.6c-0.7,0.7-1.2,1.5-1.6,2.5c-0.4,1-0.6,2-0.6,3.2c0,1.2,0.2,2.2,0.6,3.2
		c0.4,1,0.9,1.8,1.6,2.5c0.7,0.7,1.5,1.3,2.4,1.6C188.8,99.1,189.8,99.3,190.9,99.3z"/>
	<path class="st7" d="M204.2,81.7h2.4v17.2h12.7v2.2h-15.1V81.7z"/>
	<path class="st7" d="M230,101.6c-1.4,0-2.8-0.3-4-0.8c-1.2-0.5-2.3-1.2-3.2-2.1c-0.9-0.9-1.6-2-2.1-3.2c-0.5-1.2-0.8-2.6-0.8-4.1
		c0-1.5,0.3-2.8,0.8-4.1c0.5-1.2,1.2-2.3,2.1-3.2c0.9-0.9,1.9-1.6,3.2-2.1c1.2-0.5,2.6-0.8,4-0.8c1.4,0,2.8,0.3,4,0.8
		c1.2,0.5,2.3,1.2,3.2,2.1c0.9,0.9,1.6,2,2.1,3.2c0.5,1.2,0.8,2.6,0.8,4.1c0,1.5-0.3,2.9-0.8,4.1c-0.5,1.2-1.2,2.3-2.1,3.2
		c-0.9,0.9-2,1.6-3.2,2.1C232.8,101.3,231.5,101.6,230,101.6z M230,99.3c1.1,0,2.1-0.2,3-0.6c0.9-0.4,1.7-0.9,2.4-1.6
		c0.7-0.7,1.2-1.5,1.6-2.5c0.4-1,0.6-2,0.6-3.2c0-1.2-0.2-2.2-0.6-3.2c-0.4-1-0.9-1.8-1.6-2.5c-0.7-0.7-1.5-1.2-2.4-1.6
		c-0.9-0.4-1.9-0.6-3-0.6c-1.1,0-2.1,0.2-3,0.6c-0.9,0.4-1.7,0.9-2.4,1.6c-0.7,0.7-1.2,1.5-1.6,2.5c-0.4,1-0.6,2-0.6,3.2
		c0,1.2,0.2,2.2,0.6,3.2c0.4,1,0.9,1.8,1.6,2.5c0.7,0.7,1.5,1.3,2.4,1.6C228,99.1,229,99.3,230,99.3z"/>
	<path class="st7" d="M258.2,93l-5.3,0l0-2.2h7.7c0,0,0.4,4.4,0,5.8c-0.5,1.8-2.2,2.9-3.7,3.7c-1.5,0.9-3.2,1.3-5.1,1.3
		c-1.4,0-2.8-0.3-4-0.8c-1.2-0.5-2.3-1.2-3.2-2.1c-0.9-0.9-1.6-2-2.1-3.2c-0.5-1.2-0.8-2.6-0.8-4.1c0-1.5,0.3-2.8,0.8-4.1
		c0.5-1.2,1.2-2.3,2.1-3.2c0.9-0.9,2-1.6,3.2-2.1c1.2-0.5,2.6-0.8,4-0.8c1.8,0,3.4,0.4,4.9,1.2c1.5,0.8,2.7,1.9,3.6,3.3l-2,1.4
		c-0.6-1.2-1.5-2.1-2.6-2.7c-1.1-0.6-2.4-1-3.8-1c-1.1,0-2.1,0.2-3,0.6c-0.9,0.4-1.7,0.9-2.4,1.6c-0.7,0.7-1.2,1.5-1.6,2.5
		c-0.4,1-0.6,2-0.6,3.2c0,1.2,0.2,2.2,0.6,3.2c0.4,1,0.9,1.8,1.6,2.5c0.7,0.7,1.5,1.3,2.4,1.6c0.9,0.4,1.9,0.6,3,0.6
		c2.7,0,4.8-1.2,6.4-3.5V93z"/>
	<path class="st7" d="M268.6,91.4l-8.7-9.7h3l6.9,7.7l6.9-7.7h3.1l-8.8,9.7v9.7h-2.4V91.4z"/>
	<path class="st7" d="M75.3,101.1h-2.7c0,0-3.1-5.4-4.8-8.5H64v-2.2h4.9c2.5,0,3.7-1.1,3.7-3.2c0-1-0.3-1.8-0.9-2.4
		c-0.6-0.6-1.5-0.9-2.7-0.9h-8.7v17.2h-2.4V81.7H69c1.9,0,3.4,0.5,4.5,1.4c1.1,1,1.6,2.3,1.6,4c0,0.7-0.1,1.3-0.3,1.9
		c-0.2,0.6-0.5,1.1-0.9,1.6c-0.4,0.5-0.9,0.9-1.4,1.2c-0.6,0.3-1.2,0.6-1.9,0.7L75.3,101.1z"/>
	<path class="st7" d="M178.3,101.1h-2.7c0,0-3.1-5.4-4.8-8.5h-3.8v-2.2h4.9c2.5,0,3.7-1.1,3.7-3.2c0-1-0.3-1.8-0.9-2.4
		c-0.6-0.6-1.5-0.9-2.7-0.9h-8.7v17.2h-2.4V81.7H172c1.9,0,3.4,0.5,4.5,1.4c1.1,1,1.6,2.3,1.6,4c0,0.7-0.1,1.3-0.3,1.9
		c-0.2,0.6-0.5,1.1-0.9,1.6c-0.4,0.5-0.9,0.9-1.4,1.2c-0.6,0.3-1.2,0.6-1.9,0.7L178.3,101.1z"/>
</g>
</svg>
